%TF.GenerationSoftware,KiCad,Pcbnew,10.0.5*%
%TF.CreationDate,2026-10-01T23:17:28+05:30*%
%TF.ProjectId,Battery level indicator,42617474-6572-4792-906c-6576656c2069,rev?*%
%TF.SameCoordinates,Original*%
%TF.FileFunction,Legend,Top*%
%TF.FilePolarity,Positive*%
%FSLAX46Y46*%
G04 Gerber Fmt 4.6, Leading zero omitted, Abs format (unit mm)*
G04 Created by KiCad (PCBNEW 10.0.5) date 2026-10-01 23:17:28*
%MOMM*%
%LPD*%
G01*
G04 APERTURE LIST*
%ADD10C,0.150000*%
%ADD11C,0.120000*%
G04 APERTURE END LIST*
D10*
X117443095Y-67664819D02*
X117443095Y-68474342D01*
X117443095Y-68474342D02*
X117490714Y-68569580D01*
X117490714Y-68569580D02*
X117538333Y-68617200D01*
X117538333Y-68617200D02*
X117633571Y-68664819D01*
X117633571Y-68664819D02*
X117824047Y-68664819D01*
X117824047Y-68664819D02*
X117919285Y-68617200D01*
X117919285Y-68617200D02*
X117966904Y-68569580D01*
X117966904Y-68569580D02*
X118014523Y-68474342D01*
X118014523Y-68474342D02*
X118014523Y-67664819D01*
X119014523Y-68664819D02*
X118443095Y-68664819D01*
X118728809Y-68664819D02*
X118728809Y-67664819D01*
X118728809Y-67664819D02*
X118633571Y-67807676D01*
X118633571Y-67807676D02*
X118538333Y-67902914D01*
X118538333Y-67902914D02*
X118443095Y-67950533D01*
X109657200Y-91033332D02*
X109704819Y-90890475D01*
X109704819Y-90890475D02*
X109704819Y-90652380D01*
X109704819Y-90652380D02*
X109657200Y-90557142D01*
X109657200Y-90557142D02*
X109609580Y-90509523D01*
X109609580Y-90509523D02*
X109514342Y-90461904D01*
X109514342Y-90461904D02*
X109419104Y-90461904D01*
X109419104Y-90461904D02*
X109323866Y-90509523D01*
X109323866Y-90509523D02*
X109276247Y-90557142D01*
X109276247Y-90557142D02*
X109228628Y-90652380D01*
X109228628Y-90652380D02*
X109181009Y-90842856D01*
X109181009Y-90842856D02*
X109133390Y-90938094D01*
X109133390Y-90938094D02*
X109085771Y-90985713D01*
X109085771Y-90985713D02*
X108990533Y-91033332D01*
X108990533Y-91033332D02*
X108895295Y-91033332D01*
X108895295Y-91033332D02*
X108800057Y-90985713D01*
X108800057Y-90985713D02*
X108752438Y-90938094D01*
X108752438Y-90938094D02*
X108704819Y-90842856D01*
X108704819Y-90842856D02*
X108704819Y-90604761D01*
X108704819Y-90604761D02*
X108752438Y-90461904D01*
X108704819Y-90128570D02*
X109704819Y-89890475D01*
X109704819Y-89890475D02*
X108990533Y-89699999D01*
X108990533Y-89699999D02*
X109704819Y-89509523D01*
X109704819Y-89509523D02*
X108704819Y-89271428D01*
X109704819Y-88366666D02*
X109704819Y-88938094D01*
X109704819Y-88652380D02*
X108704819Y-88652380D01*
X108704819Y-88652380D02*
X108847676Y-88747618D01*
X108847676Y-88747618D02*
X108942914Y-88842856D01*
X108942914Y-88842856D02*
X108990533Y-88938094D01*
X109004761Y-66919819D02*
X108671428Y-66443628D01*
X108433333Y-66919819D02*
X108433333Y-65919819D01*
X108433333Y-65919819D02*
X108814285Y-65919819D01*
X108814285Y-65919819D02*
X108909523Y-65967438D01*
X108909523Y-65967438D02*
X108957142Y-66015057D01*
X108957142Y-66015057D02*
X109004761Y-66110295D01*
X109004761Y-66110295D02*
X109004761Y-66253152D01*
X109004761Y-66253152D02*
X108957142Y-66348390D01*
X108957142Y-66348390D02*
X108909523Y-66396009D01*
X108909523Y-66396009D02*
X108814285Y-66443628D01*
X108814285Y-66443628D02*
X108433333Y-66443628D01*
X109290476Y-65919819D02*
X109623809Y-66919819D01*
X109623809Y-66919819D02*
X109957142Y-65919819D01*
X110814285Y-66919819D02*
X110242857Y-66919819D01*
X110528571Y-66919819D02*
X110528571Y-65919819D01*
X110528571Y-65919819D02*
X110433333Y-66062676D01*
X110433333Y-66062676D02*
X110338095Y-66157914D01*
X110338095Y-66157914D02*
X110242857Y-66205533D01*
X93433333Y-81254819D02*
X93100000Y-80778628D01*
X92861905Y-81254819D02*
X92861905Y-80254819D01*
X92861905Y-80254819D02*
X93242857Y-80254819D01*
X93242857Y-80254819D02*
X93338095Y-80302438D01*
X93338095Y-80302438D02*
X93385714Y-80350057D01*
X93385714Y-80350057D02*
X93433333Y-80445295D01*
X93433333Y-80445295D02*
X93433333Y-80588152D01*
X93433333Y-80588152D02*
X93385714Y-80683390D01*
X93385714Y-80683390D02*
X93338095Y-80731009D01*
X93338095Y-80731009D02*
X93242857Y-80778628D01*
X93242857Y-80778628D02*
X92861905Y-80778628D01*
X93766667Y-80254819D02*
X94385714Y-80254819D01*
X94385714Y-80254819D02*
X94052381Y-80635771D01*
X94052381Y-80635771D02*
X94195238Y-80635771D01*
X94195238Y-80635771D02*
X94290476Y-80683390D01*
X94290476Y-80683390D02*
X94338095Y-80731009D01*
X94338095Y-80731009D02*
X94385714Y-80826247D01*
X94385714Y-80826247D02*
X94385714Y-81064342D01*
X94385714Y-81064342D02*
X94338095Y-81159580D01*
X94338095Y-81159580D02*
X94290476Y-81207200D01*
X94290476Y-81207200D02*
X94195238Y-81254819D01*
X94195238Y-81254819D02*
X93909524Y-81254819D01*
X93909524Y-81254819D02*
X93814286Y-81207200D01*
X93814286Y-81207200D02*
X93766667Y-81159580D01*
X93033333Y-76854819D02*
X92700000Y-76378628D01*
X92461905Y-76854819D02*
X92461905Y-75854819D01*
X92461905Y-75854819D02*
X92842857Y-75854819D01*
X92842857Y-75854819D02*
X92938095Y-75902438D01*
X92938095Y-75902438D02*
X92985714Y-75950057D01*
X92985714Y-75950057D02*
X93033333Y-76045295D01*
X93033333Y-76045295D02*
X93033333Y-76188152D01*
X93033333Y-76188152D02*
X92985714Y-76283390D01*
X92985714Y-76283390D02*
X92938095Y-76331009D01*
X92938095Y-76331009D02*
X92842857Y-76378628D01*
X92842857Y-76378628D02*
X92461905Y-76378628D01*
X93414286Y-75950057D02*
X93461905Y-75902438D01*
X93461905Y-75902438D02*
X93557143Y-75854819D01*
X93557143Y-75854819D02*
X93795238Y-75854819D01*
X93795238Y-75854819D02*
X93890476Y-75902438D01*
X93890476Y-75902438D02*
X93938095Y-75950057D01*
X93938095Y-75950057D02*
X93985714Y-76045295D01*
X93985714Y-76045295D02*
X93985714Y-76140533D01*
X93985714Y-76140533D02*
X93938095Y-76283390D01*
X93938095Y-76283390D02*
X93366667Y-76854819D01*
X93366667Y-76854819D02*
X93985714Y-76854819D01*
X93333333Y-71554819D02*
X93000000Y-71078628D01*
X92761905Y-71554819D02*
X92761905Y-70554819D01*
X92761905Y-70554819D02*
X93142857Y-70554819D01*
X93142857Y-70554819D02*
X93238095Y-70602438D01*
X93238095Y-70602438D02*
X93285714Y-70650057D01*
X93285714Y-70650057D02*
X93333333Y-70745295D01*
X93333333Y-70745295D02*
X93333333Y-70888152D01*
X93333333Y-70888152D02*
X93285714Y-70983390D01*
X93285714Y-70983390D02*
X93238095Y-71031009D01*
X93238095Y-71031009D02*
X93142857Y-71078628D01*
X93142857Y-71078628D02*
X92761905Y-71078628D01*
X94285714Y-71554819D02*
X93714286Y-71554819D01*
X94000000Y-71554819D02*
X94000000Y-70554819D01*
X94000000Y-70554819D02*
X93904762Y-70697676D01*
X93904762Y-70697676D02*
X93809524Y-70792914D01*
X93809524Y-70792914D02*
X93714286Y-70840533D01*
X96366666Y-85474819D02*
X96366666Y-86189104D01*
X96366666Y-86189104D02*
X96319047Y-86331961D01*
X96319047Y-86331961D02*
X96223809Y-86427200D01*
X96223809Y-86427200D02*
X96080952Y-86474819D01*
X96080952Y-86474819D02*
X95985714Y-86474819D01*
X97366666Y-86474819D02*
X96795238Y-86474819D01*
X97080952Y-86474819D02*
X97080952Y-85474819D01*
X97080952Y-85474819D02*
X96985714Y-85617676D01*
X96985714Y-85617676D02*
X96890476Y-85712914D01*
X96890476Y-85712914D02*
X96795238Y-85760533D01*
X138785714Y-112054819D02*
X138785714Y-111054819D01*
X138785714Y-111054819D02*
X139023809Y-111054819D01*
X139023809Y-111054819D02*
X139166666Y-111102438D01*
X139166666Y-111102438D02*
X139261904Y-111197676D01*
X139261904Y-111197676D02*
X139309523Y-111292914D01*
X139309523Y-111292914D02*
X139357142Y-111483390D01*
X139357142Y-111483390D02*
X139357142Y-111626247D01*
X139357142Y-111626247D02*
X139309523Y-111816723D01*
X139309523Y-111816723D02*
X139261904Y-111911961D01*
X139261904Y-111911961D02*
X139166666Y-112007200D01*
X139166666Y-112007200D02*
X139023809Y-112054819D01*
X139023809Y-112054819D02*
X138785714Y-112054819D01*
X140309523Y-112054819D02*
X139738095Y-112054819D01*
X140023809Y-112054819D02*
X140023809Y-111054819D01*
X140023809Y-111054819D02*
X139928571Y-111197676D01*
X139928571Y-111197676D02*
X139833333Y-111292914D01*
X139833333Y-111292914D02*
X139738095Y-111340533D01*
X140928571Y-111054819D02*
X141023809Y-111054819D01*
X141023809Y-111054819D02*
X141119047Y-111102438D01*
X141119047Y-111102438D02*
X141166666Y-111150057D01*
X141166666Y-111150057D02*
X141214285Y-111245295D01*
X141214285Y-111245295D02*
X141261904Y-111435771D01*
X141261904Y-111435771D02*
X141261904Y-111673866D01*
X141261904Y-111673866D02*
X141214285Y-111864342D01*
X141214285Y-111864342D02*
X141166666Y-111959580D01*
X141166666Y-111959580D02*
X141119047Y-112007200D01*
X141119047Y-112007200D02*
X141023809Y-112054819D01*
X141023809Y-112054819D02*
X140928571Y-112054819D01*
X140928571Y-112054819D02*
X140833333Y-112007200D01*
X140833333Y-112007200D02*
X140785714Y-111959580D01*
X140785714Y-111959580D02*
X140738095Y-111864342D01*
X140738095Y-111864342D02*
X140690476Y-111673866D01*
X140690476Y-111673866D02*
X140690476Y-111435771D01*
X140690476Y-111435771D02*
X140738095Y-111245295D01*
X140738095Y-111245295D02*
X140785714Y-111150057D01*
X140785714Y-111150057D02*
X140833333Y-111102438D01*
X140833333Y-111102438D02*
X140928571Y-111054819D01*
X139061905Y-105054819D02*
X139061905Y-104054819D01*
X139061905Y-104054819D02*
X139300000Y-104054819D01*
X139300000Y-104054819D02*
X139442857Y-104102438D01*
X139442857Y-104102438D02*
X139538095Y-104197676D01*
X139538095Y-104197676D02*
X139585714Y-104292914D01*
X139585714Y-104292914D02*
X139633333Y-104483390D01*
X139633333Y-104483390D02*
X139633333Y-104626247D01*
X139633333Y-104626247D02*
X139585714Y-104816723D01*
X139585714Y-104816723D02*
X139538095Y-104911961D01*
X139538095Y-104911961D02*
X139442857Y-105007200D01*
X139442857Y-105007200D02*
X139300000Y-105054819D01*
X139300000Y-105054819D02*
X139061905Y-105054819D01*
X140109524Y-105054819D02*
X140300000Y-105054819D01*
X140300000Y-105054819D02*
X140395238Y-105007200D01*
X140395238Y-105007200D02*
X140442857Y-104959580D01*
X140442857Y-104959580D02*
X140538095Y-104816723D01*
X140538095Y-104816723D02*
X140585714Y-104626247D01*
X140585714Y-104626247D02*
X140585714Y-104245295D01*
X140585714Y-104245295D02*
X140538095Y-104150057D01*
X140538095Y-104150057D02*
X140490476Y-104102438D01*
X140490476Y-104102438D02*
X140395238Y-104054819D01*
X140395238Y-104054819D02*
X140204762Y-104054819D01*
X140204762Y-104054819D02*
X140109524Y-104102438D01*
X140109524Y-104102438D02*
X140061905Y-104150057D01*
X140061905Y-104150057D02*
X140014286Y-104245295D01*
X140014286Y-104245295D02*
X140014286Y-104483390D01*
X140014286Y-104483390D02*
X140061905Y-104578628D01*
X140061905Y-104578628D02*
X140109524Y-104626247D01*
X140109524Y-104626247D02*
X140204762Y-104673866D01*
X140204762Y-104673866D02*
X140395238Y-104673866D01*
X140395238Y-104673866D02*
X140490476Y-104626247D01*
X140490476Y-104626247D02*
X140538095Y-104578628D01*
X140538095Y-104578628D02*
X140585714Y-104483390D01*
X138961905Y-97454819D02*
X138961905Y-96454819D01*
X138961905Y-96454819D02*
X139200000Y-96454819D01*
X139200000Y-96454819D02*
X139342857Y-96502438D01*
X139342857Y-96502438D02*
X139438095Y-96597676D01*
X139438095Y-96597676D02*
X139485714Y-96692914D01*
X139485714Y-96692914D02*
X139533333Y-96883390D01*
X139533333Y-96883390D02*
X139533333Y-97026247D01*
X139533333Y-97026247D02*
X139485714Y-97216723D01*
X139485714Y-97216723D02*
X139438095Y-97311961D01*
X139438095Y-97311961D02*
X139342857Y-97407200D01*
X139342857Y-97407200D02*
X139200000Y-97454819D01*
X139200000Y-97454819D02*
X138961905Y-97454819D01*
X140104762Y-96883390D02*
X140009524Y-96835771D01*
X140009524Y-96835771D02*
X139961905Y-96788152D01*
X139961905Y-96788152D02*
X139914286Y-96692914D01*
X139914286Y-96692914D02*
X139914286Y-96645295D01*
X139914286Y-96645295D02*
X139961905Y-96550057D01*
X139961905Y-96550057D02*
X140009524Y-96502438D01*
X140009524Y-96502438D02*
X140104762Y-96454819D01*
X140104762Y-96454819D02*
X140295238Y-96454819D01*
X140295238Y-96454819D02*
X140390476Y-96502438D01*
X140390476Y-96502438D02*
X140438095Y-96550057D01*
X140438095Y-96550057D02*
X140485714Y-96645295D01*
X140485714Y-96645295D02*
X140485714Y-96692914D01*
X140485714Y-96692914D02*
X140438095Y-96788152D01*
X140438095Y-96788152D02*
X140390476Y-96835771D01*
X140390476Y-96835771D02*
X140295238Y-96883390D01*
X140295238Y-96883390D02*
X140104762Y-96883390D01*
X140104762Y-96883390D02*
X140009524Y-96931009D01*
X140009524Y-96931009D02*
X139961905Y-96978628D01*
X139961905Y-96978628D02*
X139914286Y-97073866D01*
X139914286Y-97073866D02*
X139914286Y-97264342D01*
X139914286Y-97264342D02*
X139961905Y-97359580D01*
X139961905Y-97359580D02*
X140009524Y-97407200D01*
X140009524Y-97407200D02*
X140104762Y-97454819D01*
X140104762Y-97454819D02*
X140295238Y-97454819D01*
X140295238Y-97454819D02*
X140390476Y-97407200D01*
X140390476Y-97407200D02*
X140438095Y-97359580D01*
X140438095Y-97359580D02*
X140485714Y-97264342D01*
X140485714Y-97264342D02*
X140485714Y-97073866D01*
X140485714Y-97073866D02*
X140438095Y-96978628D01*
X140438095Y-96978628D02*
X140390476Y-96931009D01*
X140390476Y-96931009D02*
X140295238Y-96883390D01*
X138961905Y-89754819D02*
X138961905Y-88754819D01*
X138961905Y-88754819D02*
X139200000Y-88754819D01*
X139200000Y-88754819D02*
X139342857Y-88802438D01*
X139342857Y-88802438D02*
X139438095Y-88897676D01*
X139438095Y-88897676D02*
X139485714Y-88992914D01*
X139485714Y-88992914D02*
X139533333Y-89183390D01*
X139533333Y-89183390D02*
X139533333Y-89326247D01*
X139533333Y-89326247D02*
X139485714Y-89516723D01*
X139485714Y-89516723D02*
X139438095Y-89611961D01*
X139438095Y-89611961D02*
X139342857Y-89707200D01*
X139342857Y-89707200D02*
X139200000Y-89754819D01*
X139200000Y-89754819D02*
X138961905Y-89754819D01*
X139866667Y-88754819D02*
X140533333Y-88754819D01*
X140533333Y-88754819D02*
X140104762Y-89754819D01*
X138861905Y-82654819D02*
X138861905Y-81654819D01*
X138861905Y-81654819D02*
X139100000Y-81654819D01*
X139100000Y-81654819D02*
X139242857Y-81702438D01*
X139242857Y-81702438D02*
X139338095Y-81797676D01*
X139338095Y-81797676D02*
X139385714Y-81892914D01*
X139385714Y-81892914D02*
X139433333Y-82083390D01*
X139433333Y-82083390D02*
X139433333Y-82226247D01*
X139433333Y-82226247D02*
X139385714Y-82416723D01*
X139385714Y-82416723D02*
X139338095Y-82511961D01*
X139338095Y-82511961D02*
X139242857Y-82607200D01*
X139242857Y-82607200D02*
X139100000Y-82654819D01*
X139100000Y-82654819D02*
X138861905Y-82654819D01*
X140290476Y-81654819D02*
X140100000Y-81654819D01*
X140100000Y-81654819D02*
X140004762Y-81702438D01*
X140004762Y-81702438D02*
X139957143Y-81750057D01*
X139957143Y-81750057D02*
X139861905Y-81892914D01*
X139861905Y-81892914D02*
X139814286Y-82083390D01*
X139814286Y-82083390D02*
X139814286Y-82464342D01*
X139814286Y-82464342D02*
X139861905Y-82559580D01*
X139861905Y-82559580D02*
X139909524Y-82607200D01*
X139909524Y-82607200D02*
X140004762Y-82654819D01*
X140004762Y-82654819D02*
X140195238Y-82654819D01*
X140195238Y-82654819D02*
X140290476Y-82607200D01*
X140290476Y-82607200D02*
X140338095Y-82559580D01*
X140338095Y-82559580D02*
X140385714Y-82464342D01*
X140385714Y-82464342D02*
X140385714Y-82226247D01*
X140385714Y-82226247D02*
X140338095Y-82131009D01*
X140338095Y-82131009D02*
X140290476Y-82083390D01*
X140290476Y-82083390D02*
X140195238Y-82035771D01*
X140195238Y-82035771D02*
X140004762Y-82035771D01*
X140004762Y-82035771D02*
X139909524Y-82083390D01*
X139909524Y-82083390D02*
X139861905Y-82131009D01*
X139861905Y-82131009D02*
X139814286Y-82226247D01*
X138961905Y-74854819D02*
X138961905Y-73854819D01*
X138961905Y-73854819D02*
X139200000Y-73854819D01*
X139200000Y-73854819D02*
X139342857Y-73902438D01*
X139342857Y-73902438D02*
X139438095Y-73997676D01*
X139438095Y-73997676D02*
X139485714Y-74092914D01*
X139485714Y-74092914D02*
X139533333Y-74283390D01*
X139533333Y-74283390D02*
X139533333Y-74426247D01*
X139533333Y-74426247D02*
X139485714Y-74616723D01*
X139485714Y-74616723D02*
X139438095Y-74711961D01*
X139438095Y-74711961D02*
X139342857Y-74807200D01*
X139342857Y-74807200D02*
X139200000Y-74854819D01*
X139200000Y-74854819D02*
X138961905Y-74854819D01*
X140438095Y-73854819D02*
X139961905Y-73854819D01*
X139961905Y-73854819D02*
X139914286Y-74331009D01*
X139914286Y-74331009D02*
X139961905Y-74283390D01*
X139961905Y-74283390D02*
X140057143Y-74235771D01*
X140057143Y-74235771D02*
X140295238Y-74235771D01*
X140295238Y-74235771D02*
X140390476Y-74283390D01*
X140390476Y-74283390D02*
X140438095Y-74331009D01*
X140438095Y-74331009D02*
X140485714Y-74426247D01*
X140485714Y-74426247D02*
X140485714Y-74664342D01*
X140485714Y-74664342D02*
X140438095Y-74759580D01*
X140438095Y-74759580D02*
X140390476Y-74807200D01*
X140390476Y-74807200D02*
X140295238Y-74854819D01*
X140295238Y-74854819D02*
X140057143Y-74854819D01*
X140057143Y-74854819D02*
X139961905Y-74807200D01*
X139961905Y-74807200D02*
X139914286Y-74759580D01*
X139061905Y-67754819D02*
X139061905Y-66754819D01*
X139061905Y-66754819D02*
X139300000Y-66754819D01*
X139300000Y-66754819D02*
X139442857Y-66802438D01*
X139442857Y-66802438D02*
X139538095Y-66897676D01*
X139538095Y-66897676D02*
X139585714Y-66992914D01*
X139585714Y-66992914D02*
X139633333Y-67183390D01*
X139633333Y-67183390D02*
X139633333Y-67326247D01*
X139633333Y-67326247D02*
X139585714Y-67516723D01*
X139585714Y-67516723D02*
X139538095Y-67611961D01*
X139538095Y-67611961D02*
X139442857Y-67707200D01*
X139442857Y-67707200D02*
X139300000Y-67754819D01*
X139300000Y-67754819D02*
X139061905Y-67754819D01*
X140490476Y-67088152D02*
X140490476Y-67754819D01*
X140252381Y-66707200D02*
X140014286Y-67421485D01*
X140014286Y-67421485D02*
X140633333Y-67421485D01*
X139261905Y-60354819D02*
X139261905Y-59354819D01*
X139261905Y-59354819D02*
X139500000Y-59354819D01*
X139500000Y-59354819D02*
X139642857Y-59402438D01*
X139642857Y-59402438D02*
X139738095Y-59497676D01*
X139738095Y-59497676D02*
X139785714Y-59592914D01*
X139785714Y-59592914D02*
X139833333Y-59783390D01*
X139833333Y-59783390D02*
X139833333Y-59926247D01*
X139833333Y-59926247D02*
X139785714Y-60116723D01*
X139785714Y-60116723D02*
X139738095Y-60211961D01*
X139738095Y-60211961D02*
X139642857Y-60307200D01*
X139642857Y-60307200D02*
X139500000Y-60354819D01*
X139500000Y-60354819D02*
X139261905Y-60354819D01*
X140166667Y-59354819D02*
X140785714Y-59354819D01*
X140785714Y-59354819D02*
X140452381Y-59735771D01*
X140452381Y-59735771D02*
X140595238Y-59735771D01*
X140595238Y-59735771D02*
X140690476Y-59783390D01*
X140690476Y-59783390D02*
X140738095Y-59831009D01*
X140738095Y-59831009D02*
X140785714Y-59926247D01*
X140785714Y-59926247D02*
X140785714Y-60164342D01*
X140785714Y-60164342D02*
X140738095Y-60259580D01*
X140738095Y-60259580D02*
X140690476Y-60307200D01*
X140690476Y-60307200D02*
X140595238Y-60354819D01*
X140595238Y-60354819D02*
X140309524Y-60354819D01*
X140309524Y-60354819D02*
X140214286Y-60307200D01*
X140214286Y-60307200D02*
X140166667Y-60259580D01*
X139161905Y-52754819D02*
X139161905Y-51754819D01*
X139161905Y-51754819D02*
X139400000Y-51754819D01*
X139400000Y-51754819D02*
X139542857Y-51802438D01*
X139542857Y-51802438D02*
X139638095Y-51897676D01*
X139638095Y-51897676D02*
X139685714Y-51992914D01*
X139685714Y-51992914D02*
X139733333Y-52183390D01*
X139733333Y-52183390D02*
X139733333Y-52326247D01*
X139733333Y-52326247D02*
X139685714Y-52516723D01*
X139685714Y-52516723D02*
X139638095Y-52611961D01*
X139638095Y-52611961D02*
X139542857Y-52707200D01*
X139542857Y-52707200D02*
X139400000Y-52754819D01*
X139400000Y-52754819D02*
X139161905Y-52754819D01*
X140114286Y-51850057D02*
X140161905Y-51802438D01*
X140161905Y-51802438D02*
X140257143Y-51754819D01*
X140257143Y-51754819D02*
X140495238Y-51754819D01*
X140495238Y-51754819D02*
X140590476Y-51802438D01*
X140590476Y-51802438D02*
X140638095Y-51850057D01*
X140638095Y-51850057D02*
X140685714Y-51945295D01*
X140685714Y-51945295D02*
X140685714Y-52040533D01*
X140685714Y-52040533D02*
X140638095Y-52183390D01*
X140638095Y-52183390D02*
X140066667Y-52754819D01*
X140066667Y-52754819D02*
X140685714Y-52754819D01*
X138961905Y-45254819D02*
X138961905Y-44254819D01*
X138961905Y-44254819D02*
X139200000Y-44254819D01*
X139200000Y-44254819D02*
X139342857Y-44302438D01*
X139342857Y-44302438D02*
X139438095Y-44397676D01*
X139438095Y-44397676D02*
X139485714Y-44492914D01*
X139485714Y-44492914D02*
X139533333Y-44683390D01*
X139533333Y-44683390D02*
X139533333Y-44826247D01*
X139533333Y-44826247D02*
X139485714Y-45016723D01*
X139485714Y-45016723D02*
X139438095Y-45111961D01*
X139438095Y-45111961D02*
X139342857Y-45207200D01*
X139342857Y-45207200D02*
X139200000Y-45254819D01*
X139200000Y-45254819D02*
X138961905Y-45254819D01*
X140485714Y-45254819D02*
X139914286Y-45254819D01*
X140200000Y-45254819D02*
X140200000Y-44254819D01*
X140200000Y-44254819D02*
X140104762Y-44397676D01*
X140104762Y-44397676D02*
X140009524Y-44492914D01*
X140009524Y-44492914D02*
X139914286Y-44540533D01*
%TO.C,U1*%
D11*
X115555000Y-69210000D02*
X115555000Y-92190000D01*
X115555000Y-92190000D02*
X120855000Y-92190000D01*
X117205000Y-69210000D02*
X115555000Y-69210000D01*
X120855000Y-69210000D02*
X119205000Y-69210000D01*
X120855000Y-92190000D02*
X120855000Y-69210000D01*
X119205000Y-69210000D02*
G75*
G02*
X117205000Y-69210000I-1000000J0D01*
G01*
%TO.C,SW1*%
X105750000Y-86200000D02*
X104250000Y-86200000D01*
X101750000Y-87450000D02*
X101750000Y-91950000D01*
X108250000Y-91950000D02*
X108250000Y-87450000D01*
X104250000Y-93200000D02*
X105750000Y-93200000D01*
%TO.C,RV1*%
X115235000Y-62860000D02*
X113715000Y-62860000D01*
X115235000Y-61655000D02*
X114475000Y-61655000D01*
X115235000Y-60450000D02*
X115235000Y-62860000D01*
X113715000Y-65325000D02*
X103965000Y-65325000D01*
X113715000Y-62860000D02*
X113715000Y-60450000D01*
X113715000Y-60450000D02*
X115235000Y-60450000D01*
X113715000Y-60275000D02*
X113715000Y-65325000D01*
X103965000Y-65325000D02*
X103965000Y-60275000D01*
X103965000Y-60275000D02*
X113715000Y-60275000D01*
%TO.C,R3*%
X97390000Y-81050000D02*
X98080000Y-81050000D01*
X108010000Y-81050000D02*
X107320000Y-81050000D01*
X98080000Y-79330000D02*
X107320000Y-79330000D01*
X107320000Y-82770000D01*
X98080000Y-82770000D01*
X98080000Y-79330000D01*
%TO.C,R2*%
X97390000Y-76300000D02*
X98080000Y-76300000D01*
X108010000Y-76300000D02*
X107320000Y-76300000D01*
X98080000Y-74580000D02*
X107320000Y-74580000D01*
X107320000Y-78020000D01*
X98080000Y-78020000D01*
X98080000Y-74580000D01*
%TO.C,R1*%
X97390000Y-71550000D02*
X98080000Y-71550000D01*
X108010000Y-71550000D02*
X107320000Y-71550000D01*
X98080000Y-69830000D02*
X107320000Y-69830000D01*
X107320000Y-73270000D01*
X98080000Y-73270000D01*
X98080000Y-69830000D01*
%TO.C,J1*%
X95320000Y-87020000D02*
X96700000Y-87020000D01*
X95320000Y-88400000D02*
X95320000Y-87020000D01*
X95320000Y-89670000D02*
X95320000Y-92320000D01*
X95320000Y-89670000D02*
X98080000Y-89670000D01*
X95320000Y-92320000D02*
X98080000Y-92320000D01*
X98080000Y-89670000D02*
X98080000Y-92320000D01*
%TO.C,D10*%
X132110000Y-110425000D02*
X132110000Y-113515000D01*
X132110000Y-110425170D02*
G75*
G02*
X137660000Y-111970000I2560000J-1544830D01*
G01*
X137660000Y-111970000D02*
G75*
G02*
X132110000Y-113514830I-2990000J0D01*
G01*
X137170000Y-111970000D02*
G75*
G02*
X132170000Y-111970000I-2500000J0D01*
G01*
X132170000Y-111970000D02*
G75*
G02*
X137170000Y-111970000I2500000J0D01*
G01*
%TO.C,D9*%
X132110000Y-102955000D02*
X132110000Y-106045000D01*
X132110000Y-102955170D02*
G75*
G02*
X137660000Y-104500000I2560000J-1544830D01*
G01*
X137660000Y-104500000D02*
G75*
G02*
X132110000Y-106044830I-2990000J0D01*
G01*
X137170000Y-104500000D02*
G75*
G02*
X132170000Y-104500000I-2500000J0D01*
G01*
X132170000Y-104500000D02*
G75*
G02*
X137170000Y-104500000I2500000J0D01*
G01*
%TO.C,D8*%
X132110000Y-95485000D02*
X132110000Y-98575000D01*
X132110000Y-95485170D02*
G75*
G02*
X137660000Y-97030000I2560000J-1544830D01*
G01*
X137660000Y-97030000D02*
G75*
G02*
X132110000Y-98574830I-2990000J0D01*
G01*
X137170000Y-97030000D02*
G75*
G02*
X132170000Y-97030000I-2500000J0D01*
G01*
X132170000Y-97030000D02*
G75*
G02*
X137170000Y-97030000I2500000J0D01*
G01*
%TO.C,D7*%
X132110000Y-88015000D02*
X132110000Y-91105000D01*
X132110000Y-88015170D02*
G75*
G02*
X137660000Y-89560000I2560000J-1544830D01*
G01*
X137660000Y-89560000D02*
G75*
G02*
X132110000Y-91104830I-2990000J0D01*
G01*
X137170000Y-89560000D02*
G75*
G02*
X132170000Y-89560000I-2500000J0D01*
G01*
X132170000Y-89560000D02*
G75*
G02*
X137170000Y-89560000I2500000J0D01*
G01*
%TO.C,D6*%
X132110000Y-80545000D02*
X132110000Y-83635000D01*
X132110000Y-80545170D02*
G75*
G02*
X137660000Y-82090000I2560000J-1544830D01*
G01*
X137660000Y-82090000D02*
G75*
G02*
X132110000Y-83634830I-2990000J0D01*
G01*
X137170000Y-82090000D02*
G75*
G02*
X132170000Y-82090000I-2500000J0D01*
G01*
X132170000Y-82090000D02*
G75*
G02*
X137170000Y-82090000I2500000J0D01*
G01*
%TO.C,D5*%
X132010000Y-73155000D02*
X132010000Y-76245000D01*
X132010000Y-73155170D02*
G75*
G02*
X137560000Y-74700000I2560000J-1544830D01*
G01*
X137560000Y-74700000D02*
G75*
G02*
X132010000Y-76244830I-2990000J0D01*
G01*
X137070000Y-74700000D02*
G75*
G02*
X132070000Y-74700000I-2500000J0D01*
G01*
X132070000Y-74700000D02*
G75*
G02*
X137070000Y-74700000I2500000J0D01*
G01*
%TO.C,D4*%
X132010000Y-65685000D02*
X132010000Y-68775000D01*
X132010000Y-65685170D02*
G75*
G02*
X137560000Y-67230000I2560000J-1544830D01*
G01*
X137560000Y-67230000D02*
G75*
G02*
X132010000Y-68774830I-2990000J0D01*
G01*
X137070000Y-67230000D02*
G75*
G02*
X132070000Y-67230000I-2500000J0D01*
G01*
X132070000Y-67230000D02*
G75*
G02*
X137070000Y-67230000I2500000J0D01*
G01*
%TO.C,D3*%
X132010000Y-58215000D02*
X132010000Y-61305000D01*
X132010000Y-58215170D02*
G75*
G02*
X137560000Y-59760000I2560000J-1544830D01*
G01*
X137560000Y-59760000D02*
G75*
G02*
X132010000Y-61304830I-2990000J0D01*
G01*
X137070000Y-59760000D02*
G75*
G02*
X132070000Y-59760000I-2500000J0D01*
G01*
X132070000Y-59760000D02*
G75*
G02*
X137070000Y-59760000I2500000J0D01*
G01*
%TO.C,D2*%
X132010000Y-50745000D02*
X132010000Y-53835000D01*
X132010000Y-50745170D02*
G75*
G02*
X137560000Y-52290000I2560000J-1544830D01*
G01*
X137560000Y-52290000D02*
G75*
G02*
X132010000Y-53834830I-2990000J0D01*
G01*
X137070000Y-52290000D02*
G75*
G02*
X132070000Y-52290000I-2500000J0D01*
G01*
X132070000Y-52290000D02*
G75*
G02*
X137070000Y-52290000I2500000J0D01*
G01*
%TO.C,D1*%
X132010000Y-43275000D02*
X132010000Y-46365000D01*
X132010000Y-43275170D02*
G75*
G02*
X137560000Y-44820000I2560000J-1544830D01*
G01*
X137560000Y-44820000D02*
G75*
G02*
X132010000Y-46364830I-2990000J0D01*
G01*
X137070000Y-44820000D02*
G75*
G02*
X132070000Y-44820000I-2500000J0D01*
G01*
X132070000Y-44820000D02*
G75*
G02*
X137070000Y-44820000I2500000J0D01*
G01*
%TD*%
M02*
