M48
; DRILL file KiCad 10.0.5 date 2026-10-01T23:17:31
; FORMAT={-:-/ absolute / metric / decimal}
; #@! TF.CreationDate,2026-10-01T23:17:31+05:30
; #@! TF.GenerationSoftware,Kicad,Pcbnew,10.0.5
; #@! TF.FileFunction,MixedPlating,1,2
FMAT,2
METRIC
; #@! TA.AperFunction,Plated,PTH,ViaDrill
T1C0.300
; #@! TA.AperFunction,Plated,PTH,ComponentDrill
T2C0.800
; #@! TA.AperFunction,Plated,PTH,ComponentDrill
T3C0.900
; #@! TA.AperFunction,Plated,PTH,ComponentDrill
T4C1.000
; #@! TA.AperFunction,Plated,PTH,ComponentDrill
T5C1.100
%
G90
G05
T1
X110.9Y-69.4
X111.3Y-74.4
X114.395Y-80.7
T2
X96.35Y-71.55
X96.35Y-76.3
X96.35Y-81.05
X106.3Y-62.805
X108.84Y-62.805
X109.05Y-71.55
X109.05Y-76.3
X109.05Y-81.05
X111.38Y-62.805
X114.395Y-70.54
X114.395Y-73.08
X114.395Y-75.62
X114.395Y-78.16
X114.395Y-80.7
X114.395Y-83.24
X114.395Y-85.78
X114.395Y-88.32
X114.395Y-90.86
X122.015Y-70.54
X122.015Y-73.08
X122.015Y-75.62
X122.015Y-78.16
X122.015Y-80.7
X122.015Y-83.24
X122.015Y-85.78
X122.015Y-88.32
X122.015Y-90.86
T3
X133.3Y-44.82
X133.3Y-52.29
X133.3Y-59.76
X133.3Y-67.23
X133.3Y-74.7
X133.4Y-82.09
X133.4Y-89.56
X133.4Y-97.03
X133.4Y-104.5
X133.4Y-111.97
X135.84Y-44.82
X135.84Y-52.29
X135.84Y-59.76
X135.84Y-67.23
X135.84Y-74.7
X135.94Y-82.09
X135.94Y-89.56
X135.94Y-97.03
X135.94Y-104.5
X135.94Y-111.97
T4
X96.7Y-88.4
X96.7Y-90.94
T5
X102.75Y-86.45
X102.75Y-92.95
X107.25Y-86.45
X107.25Y-92.95
M30
