%TF.GenerationSoftware,KiCad,Pcbnew,10.0.5*%
%TF.CreationDate,2026-10-01T23:17:28+05:30*%
%TF.ProjectId,Battery level indicator,42617474-6572-4792-906c-6576656c2069,rev?*%
%TF.SameCoordinates,Original*%
%TF.FileFunction,Soldermask,Bot*%
%TF.FilePolarity,Negative*%
%FSLAX46Y46*%
G04 Gerber Fmt 4.6, Leading zero omitted, Abs format (unit mm)*
G04 Created by KiCad (PCBNEW 10.0.5) date 2026-10-01 23:17:28*
%MOMM*%
%LPD*%
G01*
G04 APERTURE LIST*
G04 Aperture macros list*
%AMRoundRect*
0 Rectangle with rounded corners*
0 $1 Rounding radius*
0 $2 $3 $4 $5 $6 $7 $8 $9 X,Y pos of 4 corners*
0 Add a 4 corners polygon primitive as box body*
4,1,4,$2,$3,$4,$5,$6,$7,$8,$9,$2,$3,0*
0 Add four circle primitives for the rounded corners*
1,1,$1+$1,$2,$3*
1,1,$1+$1,$4,$5*
1,1,$1+$1,$6,$7*
1,1,$1+$1,$8,$9*
0 Add four rect primitives between the rounded corners*
20,1,$1+$1,$2,$3,$4,$5,0*
20,1,$1+$1,$4,$5,$6,$7,0*
20,1,$1+$1,$6,$7,$8,$9,0*
20,1,$1+$1,$8,$9,$2,$3,0*%
G04 Aperture macros list end*
%ADD10RoundRect,0.250000X-0.550000X-0.550000X0.550000X-0.550000X0.550000X0.550000X-0.550000X0.550000X0*%
%ADD11C,1.600000*%
%ADD12C,2.000000*%
%ADD13C,1.440000*%
%ADD14R,1.700000X1.700000*%
%ADD15C,1.700000*%
%ADD16R,1.800000X1.800000*%
%ADD17C,1.800000*%
G04 APERTURE END LIST*
D10*
%TO.C,U1*%
X114395000Y-70540000D03*
D11*
X114395000Y-73080000D03*
X114395000Y-75620000D03*
X114395000Y-78160000D03*
X114395000Y-80700000D03*
X114395000Y-83240000D03*
X114395000Y-85780000D03*
X114395000Y-88320000D03*
X114395000Y-90860000D03*
X122015000Y-90860000D03*
X122015000Y-88320000D03*
X122015000Y-85780000D03*
X122015000Y-83240000D03*
X122015000Y-80700000D03*
X122015000Y-78160000D03*
X122015000Y-75620000D03*
X122015000Y-73080000D03*
X122015000Y-70540000D03*
%TD*%
D12*
%TO.C,SW1*%
X107250000Y-86450000D03*
X107250000Y-92950000D03*
X102750000Y-86450000D03*
X102750000Y-92950000D03*
%TD*%
D13*
%TO.C,RV1*%
X106300000Y-62805000D03*
X108840000Y-62805000D03*
X111380000Y-62805000D03*
%TD*%
D11*
%TO.C,R3*%
X96350000Y-81050000D03*
X109050000Y-81050000D03*
%TD*%
%TO.C,R2*%
X96350000Y-76300000D03*
X109050000Y-76300000D03*
%TD*%
%TO.C,R1*%
X96350000Y-71550000D03*
X109050000Y-71550000D03*
%TD*%
D14*
%TO.C,J1*%
X96700000Y-88400000D03*
D15*
X96700000Y-90940000D03*
%TD*%
D16*
%TO.C,D10*%
X133400000Y-111970000D03*
D17*
X135940000Y-111970000D03*
%TD*%
D16*
%TO.C,D9*%
X133400000Y-104500000D03*
D17*
X135940000Y-104500000D03*
%TD*%
D16*
%TO.C,D8*%
X133400000Y-97030000D03*
D17*
X135940000Y-97030000D03*
%TD*%
D16*
%TO.C,D7*%
X133400000Y-89560000D03*
D17*
X135940000Y-89560000D03*
%TD*%
D16*
%TO.C,D6*%
X133400000Y-82090000D03*
D17*
X135940000Y-82090000D03*
%TD*%
D16*
%TO.C,D5*%
X133300000Y-74700000D03*
D17*
X135840000Y-74700000D03*
%TD*%
D16*
%TO.C,D4*%
X133300000Y-67230000D03*
D17*
X135840000Y-67230000D03*
%TD*%
D16*
%TO.C,D3*%
X133300000Y-59760000D03*
D17*
X135840000Y-59760000D03*
%TD*%
D16*
%TO.C,D2*%
X133300000Y-52290000D03*
D17*
X135840000Y-52290000D03*
%TD*%
D16*
%TO.C,D1*%
X133300000Y-44820000D03*
D17*
X135840000Y-44820000D03*
%TD*%
M02*
